<?xml version="1.0" encoding="utf-8"?>
<!-- Generator: Adobe Illustrator 27.9.6, SVG Export Plug-In . SVG Version: 9.03 Build 54986)  -->
<svg version="1.1" id="Layer_1" xmlns="http://www.w3.org/2000/svg" xmlns:xlink="http://www.w3.org/1999/xlink" x="0px" y="0px"
	 viewBox="0 0 131 140" style="enable-background:new 0 0 131 140;" xml:space="preserve">
<style type="text/css">
	.st0{fill:#FFFFFF;}
</style>
<g id="XYGheB.tif">
	<g>
		<g>
			<path class="st0" d="M65.7,27c23.7,0,42.9,19.3,42.9,43.2c0,23.6-19.4,42.8-43.2,42.7c-23.6,0-42.9-19.3-42.9-42.9
				C22.5,46.1,41.8,27,65.7,27z M65.5,107.3c20.7,0,37.5-16.8,37.4-37.3c-0.1-20.7-16.7-37.3-37.3-37.3c-20.9,0-37.6,16.7-37.5,37.5
				C28.2,90.6,45,107.3,65.5,107.3z"/>
			<path class="st0" d="M64.5,103c-7.9-0.1-15.5-3.1-21.9-9.1c-0.5-0.5-0.9-1.2-0.9-1.9c-0.8-7.8,4-15.1,11.5-17.5
				c0.4-0.1,1-0.1,1.4,0.1c7.3,3.6,14.5,3.6,21.8,0c0.4-0.2,1-0.3,1.4-0.1c7.5,2.4,12.4,9.9,11.5,17.6c-0.1,0.6-0.4,1.3-0.9,1.7
				C82.3,99.8,73.9,103.1,64.5,103z"/>
			<path class="st0" d="M81,56.9c0.2,8.5-6.7,15.5-15.4,15.7c-8.3,0.3-15.4-6.6-15.6-15c-0.2-8.5,6.5-15.7,15-15.9
				C73.7,41.4,80.8,48.1,81,56.9z"/>
		</g>
	</g>
</g>
</svg>
