<?xml version="1.0" encoding="utf-8"?>
<!-- Generator: Adobe Illustrator 26.5.2, SVG Export Plug-In . SVG Version: 6.00 Build 0)  -->
<svg version="1.1" id="Layer_1" xmlns="http://www.w3.org/2000/svg" xmlns:xlink="http://www.w3.org/1999/xlink" x="0px" y="0px"
	 viewBox="0 0 131 140" style="enable-background:new 0 0 131 140;" xml:space="preserve">
<style type="text/css">
	.st0{fill:#FFFFFF;}
</style>
<path class="st0" d="M92.5,66.6c-7.8,7.9-15.7,15.7-23.5,23.5c-1,1-2.2,1.6-3.4,1.6c-1.2,0-2.3-0.5-3.4-1.6
	c-7.9-7.8-15.7-15.7-23.5-23.5c-2.1-2.1-2-5-0.1-7c1.9-1.9,4.9-1.8,7,0.3l14.3,14.3c0,0,0-26.2,0-38.5c0-2.4,1-4.2,3.1-5.2
	c0.8-0.4,1.7-0.7,2.5-0.7c0.8,0,1.7,0.2,2.5,0.7c2.1,1.1,3.1,2.9,3.1,5.2c0,12.3,0,38.5,0,38.5l14.3-14.3c2.1-2.1,5-2.2,7-0.3
	C94.5,61.6,94.5,64.5,92.5,66.6z M103.7,90.1L103.7,90.1c-2.7,0-4.9,2.2-4.9,4.9v4.1c0,1.3-1,2.3-2.3,2.3H34.6c-1.3,0-2.3-1-2.3-2.3
	V95c0-2.7-2.2-4.9-4.9-4.9h0c-2.7,0-4.9,2.2-4.9,4.9v6.2c0,4.9,4,8.9,8.9,8.9h68.2c4.9,0,8.9-4,8.9-8.9V95
	C108.6,92.3,106.4,90.1,103.7,90.1z"/>
</svg>
