<?xml version="1.0" encoding="utf-8"?>
<!-- Generator: Adobe Illustrator 26.5.2, SVG Export Plug-In . SVG Version: 6.00 Build 0)  -->
<svg version="1.1" id="Layer_1" xmlns="http://www.w3.org/2000/svg" xmlns:xlink="http://www.w3.org/1999/xlink" x="0px" y="0px"
	 viewBox="0 0 131 140" style="enable-background:new 0 0 131 140;" xml:space="preserve">
<style type="text/css">
	.st0{fill:#FFFFFF;}
</style>
<path class="st0" d="M76.5,48c0-7.3,0-14.4,0-21.7c1.5-0.2,2.8,0,3.8,1.1c5.6,5.6,11.2,11.2,16.8,16.8c1,1,1.4,2.3,1.2,3.8
	C91.1,48,83.8,48,76.5,48z M96.3,53.6c-6.9,0-13.8,0-20.7,0c-3,0-4.6-1.6-4.6-4.6V26.2h-5c-9.7,0-19.3,0-29,0
	c-1.3,0-2.4,0.4-3.3,1.4c-0.9,1-1.1,2.3-1.1,3.6c0,26,0,51.9,0,77.8c0,3.1,1.6,4.7,4.7,4.7c18.8,0,37.6,0,56.4,0
	c3,0,4.7-1.7,4.7-4.6V53.6H96.3z M45.6,31.3c3.3,0,6.6,0,10,0c1,0,2,0,3,0c1,0,1.4,0.5,1.5,1.5c0,0.8,0,1.6,0,2.4
	c0,1.2-0.5,1.6-1.7,1.6c-2.2,0-4.3,0-6.5,0h-6.4c-1.4,0-1.9-0.5-1.9-1.8c0-0.6,0-1.1,0-1.7C43.6,31.8,44.1,31.3,45.6,31.3z
	 M43.6,44.2c0-1.5,0.4-2,1.9-2c3.3,0,6.6,0,10,0c1,0,2,0,3,0c1,0,1.4,0.5,1.5,1.5c0,0.8,0,1.6,0,2.4c0,1.2-0.5,1.6-1.7,1.6
	c-2.2,0-4.3,0-6.5,0c-2.1,0-4.2,0-6.4,0c-1.4,0-1.9-0.5-1.9-1.8V44.2z M43.6,54.7c0-1,0.5-1.5,1.5-1.5c4.4,0,8.9,0,13.3,0
	c1.1,0,1.5,0.5,1.5,1.5c0,0.8,0,1.5,0,2.3c0,1.2-0.5,1.6-1.7,1.6c-2.2,0-4.4,0-6.6,0c-2.1,0-4.3,0-6.4,0c-1.3,0-1.8-0.5-1.8-1.8
	C43.6,56.1,43.6,55.4,43.6,54.7z M58.1,102.9h-6.3c-2.2,0-4.4,0-6.6,0c-1.1,0-1.6-0.5-1.7-1.6c0-0.8,0-1.6,0-2.4
	c0-0.9,0.5-1.4,1.4-1.4c4.5,0,9,0,13.5,0c0.9,0,1.4,0.5,1.4,1.4c0,0.7,0,1.5,0,2.2C60,102.4,59.6,102.9,58.1,102.9z M85.7,102.8
	c-2.2,0-4.4,0-6.6,0h-6.3c-1.4,0-1.9-0.5-1.9-1.8c0-0.7,0-1.5,0-2.2c0-0.9,0.5-1.4,1.4-1.4c4.5,0,9,0,13.5,0c0.9,0,1.4,0.6,1.4,1.5
	c0,0.8,0,1.6,0,2.4C87.4,102.3,86.9,102.8,85.7,102.8z M87.4,83.2c0,2.1-1.1,3.1-3.1,3.1H65.6c-6.2,0-12.5,0-18.7,0
	c-2.3,0-3.2-1-3.2-3.2c0-5.1,0-10.3,0-15.4c0-2.1,1-3.2,3.2-3.2c9.2,0,18.3,0,27.5,0h9.9c2.2,0,3.3,1.1,3.3,3.3V83.2z M49.2,70v10.8
	h32.7V70H49.2z"/>
</svg>
