<?xml version="1.0" encoding="utf-8"?>
<!-- Generator: Adobe Illustrator 26.5.2, SVG Export Plug-In . SVG Version: 6.00 Build 0)  -->
<svg version="1.1" id="Layer_1" xmlns="http://www.w3.org/2000/svg" xmlns:xlink="http://www.w3.org/1999/xlink" x="0px" y="0px"
	 viewBox="0 0 131 140" style="enable-background:new 0 0 131 140;" xml:space="preserve">
<style type="text/css">
	.st0{fill:#FFFFFF;}
</style>
<path class="st0" d="M100.5,49.6L67.8,66.4c-0.8,0.4-1.8,0.4-2.6-0.1L31,46.4c-1.2-0.7-1.1-2.4,0.1-3l32.7-16.9
	c0.8-0.4,1.8-0.4,2.6,0.1l34.1,19.9C101.7,47.2,101.7,48.9,100.5,49.6z M60.5,72.3L29.3,54.1c-0.9-0.5-2.1,0.1-2.1,1.2v36
	c0,1.5,0.8,3,2.1,3.7l31.1,18.2c0.9,0.5,2.1-0.1,2.1-1.2V76C62.6,74.5,61.8,73,60.5,72.3z M102,56.7L72.2,72
	c-1.4,0.7-2.3,2.2-2.3,3.8v36.4c0,1,1.1,1.7,2,1.2l29.8-15.4c1.4-0.7,2.3-2.2,2.3-3.8V57.9C104.1,56.9,103,56.2,102,56.7z"/>
</svg>
