<?xml version="1.0" encoding="utf-8"?>
<!-- Generator: Adobe Illustrator 26.5.2, SVG Export Plug-In . SVG Version: 6.00 Build 0)  -->
<svg version="1.1" id="Layer_1" xmlns="http://www.w3.org/2000/svg" xmlns:xlink="http://www.w3.org/1999/xlink" x="0px" y="0px"
	 viewBox="0 0 131 140" style="enable-background:new 0 0 131 140;" xml:space="preserve">
<style type="text/css">
	.st0{fill:#FFFFFF;}
</style>
<path class="st0" d="M95.2,52.7H75.4c-1.7,0-3-1.3-3-3V29.9c0-2.1-1.7-3.7-3.7-3.7H38.1c-1.7,0-3.2,0.6-4.3,1.8
	c-1.3,1.4-1.4,3.2-1.4,4.5v75.2c0,3.3,2.7,6,6,6h54.5c3.6,0,6-2.3,6-5.9V56.4C98.9,54.4,97.2,52.7,95.2,52.7z M92.9,111.8H38.4
	c-2.2,0-4.1-1.8-4.1-4.1V32.5c0-1.5,0.3-2.4,0.9-3.2c0.7-0.8,1.6-1.2,2.8-1.2h30.6c1,0,1.8,0.8,1.8,1.8v19.8c0,2.7,2.2,4.9,4.9,4.9
	h19.8c1,0,1.8,0.8,1.8,1.8v51.4C97,110.4,95.5,111.8,92.9,111.8z M98.1,45.1L98.1,45.1c-0.3-0.4-0.5-0.7-0.8-1L81,27.8
	c-0.3-0.3-0.7-0.6-1-0.8c-0.5-0.3-1.1-0.5-1.7-0.5c-1.9,0-3.4,1.6-3.4,3.5v17.3c0,1.6,1.3,2.9,2.9,2.9h17.3c1.2,0,2.4-0.7,3-1.8
	C98.7,47.3,98.7,46.1,98.1,45.1z M96.4,47.5c-0.3,0.5-0.8,0.8-1.3,0.8H77.8c-0.6,0-1-0.4-1-1V29.9c0-0.9,0.8-1.5,1.5-1.5
	c0.2,0,0.5,0.1,0.7,0.2c0.3,0.2,0.5,0.3,0.7,0.6l16.2,16.2c0.2,0.2,0.4,0.4,0.5,0.7C96.7,46.5,96.7,47,96.4,47.5z M82.1,96.4v1.7H86
	v2.7h-3.9v4h-3.6V93.6H87v2.8H82.1z M76.7,95.6c-0.3-0.5-0.6-1-1.2-1.3c-0.4-0.3-0.9-0.5-1.5-0.6c-0.6-0.1-1.4-0.2-2.4-0.2H67v11.3
	h3.6v-3.4h2.2c1.4,0,2.5-0.3,3.2-1c0.7-0.7,1.1-1.6,1.1-2.9C77.1,96.8,76.9,96.2,76.7,95.6z M73.6,97.5c0,0.4-0.1,0.7-0.4,0.9
	c-0.3,0.2-0.8,0.3-1.5,0.3h-1.2v-2.3h1.2c0.8,0,1.3,0.1,1.5,0.3C73.5,96.8,73.6,97.1,73.6,97.5z M81.5,72v6.5c0,1.1-0.9,2-1.9,2
	H51.8c-1.1,0-2-0.9-2-2V72c0-1.1,0.9-2,2-2h27.7C80.6,70,81.5,70.9,81.5,72z M60.3,44.4v2.7c0,0.7-0.6,1.2-1.2,1.2H45.5
	c-0.7,0-1.2-0.6-1.2-1.2v-2.7c0-0.7,0.6-1.2,1.2-1.2h13.6C59.8,43.2,60.3,43.7,60.3,44.4z M60.4,33.9v2.7c0,0.7-0.6,1.2-1.2,1.2
	H45.6c-0.7,0-1.2-0.6-1.2-1.2v-2.7c0-0.7,0.6-1.2,1.2-1.2h13.6C59.8,32.6,60.4,33.2,60.4,33.9z M60.3,55v2.7c0,0.7-0.6,1.2-1.2,1.2
	H45.5c-0.7,0-1.2-0.6-1.2-1.2V55c0-0.7,0.6-1.2,1.2-1.2h13.6C59.8,53.8,60.3,54.3,60.3,55z M60.3,97.8v2.7c0,0.7-0.6,1.2-1.2,1.2
	H45.5c-0.7,0-1.2-0.6-1.2-1.2v-2.7c0-0.7,0.6-1.2,1.2-1.2h13.6C59.8,96.6,60.3,97.1,60.3,97.8z"/>
</svg>
