<?xml version="1.0" encoding="utf-8"?>
<!-- Generator: Adobe Illustrator 26.5.2, SVG Export Plug-In . SVG Version: 6.00 Build 0)  -->
<svg version="1.1" id="Layer_1" xmlns="http://www.w3.org/2000/svg" xmlns:xlink="http://www.w3.org/1999/xlink" x="0px" y="0px"
	 viewBox="0 0 131 140" style="enable-background:new 0 0 131 140;" xml:space="preserve">
<style type="text/css">
	.st0{fill:#FFFFFF;}
</style>
<g>
	<g>
		<path class="st0" d="M104.6,95c0,2.5-0.4,3.1-2.7,3.8c-13.9,4.2-27.9,8.4-41.8,12.7c-1.3,0.4-2.4,0.2-3.6-0.4
			c-9.8-5.5-19.7-10.9-29.6-16.3c-1.5-0.8-2.2-1.9-2.2-3.7c0.1-8.9,0-17.8,0-26.7c0-1-0.3-1.6-1.3-2.1c-3-1.3-6-2.8-9-4.3
			c-1.9-0.9-2.3-2.6-1.1-4.3c4.2-6,8.5-12.1,12.8-18c0.5-0.7,1.5-1.3,2.4-1.4c3.3-0.6,6.6-0.9,9.9-1.4c8.9-1.3,17.8-2.7,26.7-3.9
			c2.1-0.3,4.2-1,6.5-0.2c10.3,3.8,20.6,7.5,30.8,11.3c0.8,0.3,1.6,0.8,2.1,1.5c4.5,6,8.9,12,13.3,18c1.4,1.9,0.6,3.8-1.6,4.4
			c-3.4,0.9-6.8,1.8-10.3,2.6c-1.1,0.2-1.4,0.7-1.4,1.8c0.1,4.5,0,9,0,13.5C104.6,86.2,104.6,90.6,104.6,95z M73,102
			c8.3-2.5,16.6-5.1,25-7.6c0.8-0.2,1.3-0.5,1.3-1.5c0-7.9,0-15.8,0-23.7c0-0.2-0.1-0.5-0.1-0.9c-2,0.5-4,1-6,1.5
			c-6.2,1.6-12.5,3.2-18.7,4.8c-2.1,0.5-2.8,0.3-4-1.5c-2.7-3.9-5.3-7.9-8-11.8c-0.3-0.4-0.6-0.8-1.1-1.5c0,15.4,0,30.5,0,45.7
			C65.3,104.3,69.1,103.1,73,102z M30,67c0,7.3,0,14.6,0,22c0,0.9,0.1,1.5,1,2c8,4.4,16,8.8,23.9,13.1c0.2,0.1,0.4,0.1,0.7,0.3
			c0-13.7,0-27.3,0-41.2c-0.3,0.4-0.5,0.7-0.6,1c-1.2,2.6-2.4,5.2-3.7,7.8c-1,2-2.2,2.5-4.2,1.5c-5.1-2.4-10.3-4.9-15.4-7.3
			c-0.5-0.2-0.9-0.4-1.6-0.7C30,66.2,30,66.6,30,67z M110.7,58.9c-3.1-4.2-6.1-8.4-9.2-12.5c-0.3-0.4-1.2-0.7-1.8-0.6
			c-11.2,2-22.4,4.1-33.7,6.2c-0.9,0.2-1.9,0.4-3,0.6c0.6,0.9,1.1,1.8,1.7,2.5c2.9,4.3,5.8,8.7,8.7,13c0.5,0.7,0.9,1.1,1.9,0.8
			c11.8-3.1,23.6-6.1,35.4-9.1c0.1,0,0.2-0.1,0.5-0.3C110.9,59.3,110.9,59.1,110.7,58.9z M54.9,52c-3.6-1.7-7.1-3.3-10.6-4.9
			c-4.6-2.1-9.1-4.2-13.7-6.3c-1-0.5-1.5-0.4-2.1,0.6c-2.8,4.1-5.7,8-8.5,12.1c-0.2,0.3-0.4,0.7-0.7,1.1c9.4,4.5,18.6,8.9,28.1,13.4
			C49.9,62.5,52.4,57.3,54.9,52z M82.8,38.5c-4-1.5-8-3-12.1-4.4c-1.3-0.4-2.8-0.3-4.2-0.1c-9,1.3-18,2.6-27,3.9
			c-0.3,0-0.6,0.1-1.2,0.2c0.6,0.4,1,0.6,1.4,0.8c6,2.8,12.1,5.6,18.1,8.3c0.8,0.3,1.8,0.3,2.6,0.2C70.7,45.7,81,43.9,91.2,42
			c0-0.1,0-0.3,0.1-0.4C88.5,40.6,85.7,39.5,82.8,38.5z"/>
	</g>
</g>
</svg>
